<!-- Generator: Adobe Illustrator 23.0.1, SVG Export Plug-In  -->
<svg version="1.1" xmlns="http://www.w3.org/2000/svg" xmlns:xlink="http://www.w3.org/1999/xlink" x="0px" y="0px"
	 width="61.867px" height="45.288px" viewBox="0 0 61.867 45.288" style="enable-background:new 0 0 61.867 45.288;"
	 xml:space="preserve">
<style type="text/css">
	.st0{fill:#FFFFFF;}
</style>
<defs>
</defs>
<g>
	<path class="st0" d="M30.89,45.26c-9.418,0-18.837-0.03-28.255,0.027c-1.745,0.011-2.489-1.116-2.621-2.53
		c-0.016-0.167-0.005-0.336-0.005-0.504C0.009,29.172,0.014,16.091,0,3.01c-0.001-1.02,0.327-1.852,1.04-2.555
		c0.361-0.356,0.846-0.348,1.295-0.442C2.443-0.01,2.559,0.005,2.671,0.005c18.837,0,37.673,0,56.51,0
		c1.394,0,2.018,0.551,2.416,1.585c0.204,0.53,0.27,1.114,0.27,1.701c-0.009,7.793-0.006,15.585-0.006,23.378
		c0,5.158,0,10.315,0,15.473c0,0.6-0.086,1.18-0.314,1.744c-0.38,0.938-0.988,1.373-2.01,1.374
		c-5.943,0.002-11.885,0.001-17.828,0.001C38.103,45.26,34.496,45.26,30.89,45.26z M30.919,39.923c7.512,0,15.023,0,22.535,0
		c0.149,0,0.299-0.002,0.448-0.001c0.296,0.002,0.334-0.122,0.155-0.333c-0.181-0.213-0.393-0.401-0.556-0.626
		c-0.75-1.037-1.555-2.033-2.351-3.031c-0.716-0.898-1.427-1.806-2.125-2.715c-1.129-1.47-2.284-2.922-3.414-4.391
		c-1.075-1.397-2.157-2.791-3.256-4.171c-1.077-1.352-2.16-2.699-3.225-4.06c-0.191-0.244-0.275-0.275-0.554-0.071
		c-1.12,0.82-2.279,1.587-3.42,2.379c-0.852,0.591-1.737,1.141-2.536,1.797c-0.891,0.731-2.299,0.852-3.203,0.147
		c-0.57-0.444-1.171-0.841-1.764-1.251c-1.505-1.04-2.988-2.114-4.478-3.176c-0.174-0.124-0.327-0.186-0.454,0.058
		c-0.441,0.848-1.145,1.502-1.709,2.259c-0.918,1.232-1.884,2.433-2.831,3.645c-0.925,1.184-1.851,2.368-2.775,3.552
		c-0.947,1.214-1.898,2.425-2.845,3.64c-0.947,1.215-1.92,2.41-2.848,3.641c-0.592,0.786-1.226,1.54-1.842,2.308
		c-0.069,0.086-0.186,0.161-0.154,0.282c0.047,0.179,0.213,0.102,0.331,0.113c0.13,0.012,0.261,0.003,0.392,0.003
		C15.933,39.923,23.426,39.923,30.919,39.923z M11.023,5.589c0.539,0.501,1.15,0.852,1.72,1.257c1.115,0.792,2.234,1.579,3.36,2.355
		c0.901,0.621,1.847,1.181,2.717,1.842c1.428,1.086,2.926,2.071,4.393,3.1c0.892,0.626,1.792,1.248,2.703,1.852
		c1.54,1.02,3.012,2.141,4.517,3.213c0.243,0.173,0.489,0.331,0.811,0.101c0.798-0.57,1.595-1.142,2.415-1.683
		c1.232-0.813,2.413-1.702,3.62-2.552c0.892-0.629,1.788-1.25,2.686-1.871c1.232-0.853,2.466-1.701,3.699-2.552
		c0.745-0.514,1.508-1.003,2.228-1.549c0.945-0.717,1.939-1.361,2.913-2.034c0.683-0.472,1.354-0.963,2.073-1.477
		C37.552,5.589,24.299,5.589,11.023,5.589z M4.614,7.665c0,9.287,0,18.57,0,27.976c0.488-0.696,0.949-1.249,1.389-1.816
		c0.931-1.201,1.86-2.405,2.801-3.598c0.942-1.195,1.872-2.397,2.809-3.596c0.925-1.184,1.838-2.378,2.773-3.552
		c1.029-1.292,2.054-2.585,3.065-3.891c0.376-0.485,0.752-0.97,1.13-1.452c0.129-0.165,0.204-0.325-0.01-0.476
		c-0.666-0.468-1.331-0.938-2.003-1.399c-1.174-0.805-2.378-1.568-3.52-2.416c-1.218-0.905-2.511-1.703-3.718-2.621
		c-0.883-0.672-1.821-1.266-2.721-1.913C5.977,8.455,5.388,7.877,4.614,7.665z M57.179,7.636c-0.344,0.203-0.661,0.362-0.947,0.564
		c-1.494,1.056-2.967,2.141-4.473,3.179c-1.337,0.922-2.682,1.834-4.001,2.783c-1.454,1.047-2.937,2.054-4.424,3.054
		c-0.303,0.204-0.336,0.33-0.084,0.589c0.325,0.333,0.659,0.669,0.915,1.052c0.958,1.435,2.112,2.718,3.14,4.099
		c1.152,1.548,2.388,3.035,3.574,4.558c1.175,1.509,2.325,3.038,3.504,4.544c0.907,1.158,1.843,2.294,2.796,3.476
		C57.179,26.227,57.179,16.964,57.179,7.636z"/>
</g>
</svg>