<!-- Generator: Adobe Illustrator 23.0.1, SVG Export Plug-In  -->
<svg version="1.1" xmlns="http://www.w3.org/2000/svg" xmlns:xlink="http://www.w3.org/1999/xlink" x="0px" y="0px"
	 width="48.074px" height="48.072px" viewBox="0 0 48.074 48.072" style="enable-background:new 0 0 48.074 48.072;"
	 xml:space="preserve">
<style type="text/css">
	.st0{fill:#FFFFFF;}
</style>
<defs>
</defs>
<g>
	<path class="st0" d="M35.4,48.072c-7.573,0-15.146,0-22.719,0c-0.397-0.065-0.794-0.129-1.191-0.194
		c-3.538-0.576-6.501-2.162-8.698-5.035c-1.931-2.526-2.765-5.437-2.776-8.581c-0.024-6.618-0.021-13.236,0.006-19.854
		c0.005-1.198,0.08-2.413,0.294-3.588C0.881,7.722,2.31,5.082,4.778,3.068c2.59-2.113,5.612-3.036,8.909-3.05
		c6.899-0.031,13.799-0.015,20.699-0.002c0.716,0.001,1.436,0.078,2.146,0.178c5.731,0.801,9.952,4.706,11.173,10.328
		c0.148,0.682,0.247,1.375,0.369,2.063c0,7.636,0,15.271,0,22.907c-0.094,0.565-0.19,1.13-0.282,1.695
		c-0.838,5.117-4.672,9.222-9.738,10.398C37.179,47.789,36.285,47.912,35.4,48.072z M43.642,24.039c0.003,0,0.007,0,0.01,0
		c0-3.129,0.012-6.259-0.008-9.388c-0.006-0.873-0.04-1.756-0.178-2.615c-0.456-2.848-1.86-5.078-4.447-6.466
		c-1.638-0.879-3.423-1.141-5.257-1.142C27.41,4.426,21.057,4.42,14.705,4.435c-0.904,0.002-1.818,0.039-2.709,0.179
		C9.278,5.04,7.086,6.315,5.695,8.766c-0.868,1.53-1.24,3.206-1.247,4.945C4.423,19.97,4.429,26.229,4.433,32.487
		c0.001,0.922-0.002,1.849,0.086,2.765c0.248,2.577,1.229,4.801,3.321,6.428c1.76,1.368,3.811,1.938,5.998,1.949
		c6.493,0.033,12.986,0.024,19.48,0.013c0.888-0.001,1.786-0.045,2.663-0.176c2.517-0.376,4.631-1.476,6.084-3.639
		c1.107-1.648,1.549-3.51,1.568-5.463C43.666,30.923,43.642,27.481,43.642,24.039z"/>
	<path class="st0" d="M24.05,36.268c-6.767,0.05-12.339-5.491-12.389-12.32c-0.05-6.797,5.494-12.371,12.347-12.415
		c6.725-0.043,12.369,5.487,12.412,12.16C36.465,30.67,31.008,36.217,24.05,36.268z M16.116,23.871
		c-0.024,4.316,3.496,7.932,7.753,7.964c4.498,0.034,8.063-3.445,8.096-7.901c0.032-4.359-3.53-7.956-7.893-7.971
		C19.702,15.948,16.14,19.489,16.116,23.871z"/>
	<path class="st0" d="M34.069,11.217c0.017-1.582,1.287-2.829,2.846-2.795c1.548,0.034,2.798,1.305,2.783,2.831
		c-0.015,1.542-1.345,2.844-2.866,2.806C35.276,14.021,34.052,12.762,34.069,11.217z"/>
</g>
</svg>