<!-- Generator: Adobe Illustrator 23.0.1, SVG Export Plug-In  -->
<svg version="1.1" xmlns="http://www.w3.org/2000/svg" xmlns:xlink="http://www.w3.org/1999/xlink" x="0px" y="0px"
	 width="21.513px" height="46.297px" viewBox="0 0 21.513 46.297" style="enable-background:new 0 0 21.513 46.297;"
	 xml:space="preserve">
<style type="text/css">
	.st0{fill:#FFFFFF;}
</style>
<defs>
</defs>
<path class="st0" d="M20.672,23.171c0.282-2.75,0.558-5.441,0.841-8.191c-2.473,0-4.884,0-7.317,0c0-1.707-0.022-3.362,0.007-5.015
	c0.023-1.291,0.786-1.998,2.087-2.003c1.53-0.005,3.061-0.001,4.591-0.002c0.164,0,0.329-0.015,0.486-0.023c0-2.671,0-5.285,0-7.933
	c-0.987,0-1.939-0.01-2.891,0.002c-2.028,0.027-4.071-0.075-6.081,0.131c-3.234,0.331-5.626,2.002-6.952,5.04
	c-0.6,1.375-0.876,2.827-0.884,4.327c-0.009,1.655-0.002,3.311-0.002,4.966c0,0.165,0,0.33,0,0.537c-1.557,0-3.049,0-4.557,0
	c0,2.734,0,5.426,0,8.178c1.53,0,3.034,0,4.572,0c0,7.738,0,15.415,0,23.112c3.212,0,6.388,0,9.625,0c0-7.717,0-15.404,0-23.125
	C16.377,23.171,18.496,23.171,20.672,23.171z"/>
</svg>